<?xml version="1.0" standalone="no"?>
<!DOCTYPE svg PUBLIC "-//W3C//DTD SVG 20010904//EN"
 "http://www.w3.org/TR/2001/REC-SVG-20010904/DTD/svg10.dtd">
<svg version="1.0" xmlns="http://www.w3.org/2000/svg"
 width="783.000000pt" height="783.000000pt" viewBox="0 0 783.000000 783.000000"
 preserveAspectRatio="xMidYMid meet">
<metadata>
Created by potrace 1.11, written by Peter Selinger 2001-2013
</metadata>
<g transform="translate(0.000000,783.000000) scale(0.100000,-0.100000)"
fill="#000000" stroke="none">
<path d="M5279 6068 c-53 -43 -49 -128 7 -159 13 -7 24 -18 24 -24 0 -7 11
-29 25 -49 14 -20 25 -39 25 -41 0 -2 -55 -45 -122 -96 -68 -51 -125 -96 -128
-99 -3 -3 -19 -16 -37 -28 -49 -34 -51 -71 -13 -189 26 -81 29 -99 17 -108
-35 -27 -24 -65 20 -65 32 0 29 -16 -6 -28 -26 -9 -411 -166 -1136 -462 -229
-94 -178 -87 -575 -75 -129 4 -256 8 -282 8 l-47 0 -17 49 c-9 27 -14 50 -13
51 36 19 44 28 44 48 0 21 -5 24 -37 24 l-36 0 -47 160 c-28 95 -56 173 -71
192 -26 34 -29 48 -15 58 18 10 109 24 203 30 173 12 200 16 253 43 66 33 63
70 -7 96 -58 22 -135 25 -243 11 -183 -25 -198 -27 -219 -33 -12 -3 -149 -6
-306 -6 -269 -1 -287 -2 -312 -21 -35 -26 -43 -47 -23 -61 33 -24 360 -127
414 -130 29 -2 54 -4 55 -6 15 -34 26 -43 54 -40 39 4 47 -11 97 -183 21 -71
40 -136 42 -142 3 -7 -1 -13 -9 -13 -29 0 -51 -25 -43 -49 6 -20 12 -22 44
-17 l36 5 62 -212 c119 -413 154 -532 158 -535 2 -2 19 1 39 6 l36 10 95 -108
94 -108 -30 -11 c-27 -9 -31 -8 -41 14 -6 14 -16 25 -21 25 -28 0 -115 -35
-111 -44 2 -6 -33 -27 -77 -46 -45 -19 -106 -47 -137 -61 l-57 -26 -41 73
c-140 245 -376 452 -634 554 -62 25 -170 58 -215 66 -16 2 -37 7 -45 9 -64 18
-258 24 -375 12 -478 -50 -909 -392 -1069 -849 -59 -167 -76 -276 -71 -463 3
-158 6 -191 27 -270 62 -246 172 -441 347 -616 214 -213 480 -343 769 -375 58
-6 249 -6 278 0 12 2 45 7 74 11 67 9 196 42 234 61 16 8 33 14 38 14 15 0
158 74 221 114 194 124 371 324 463 521 15 33 28 61 29 62 0 1 16 5 35 8 19 3
46 7 60 10 14 3 40 7 58 10 65 10 98 16 155 26 41 7 62 7 71 0 29 -25 106 -44
184 -46 l82 -2 70 -142 c39 -78 70 -144 70 -147 0 -2 -24 -4 -54 -4 -61 0 -66
-4 -70 -55 -3 -46 -1 -47 215 -43 l174 3 3 39 c2 21 -1 43 -7 49 -5 5 -33 10
-62 11 l-53 1 -17 45 c-10 25 -40 105 -67 177 l-49 133 48 49 c26 28 57 68 69
90 61 121 60 267 -4 377 l-24 42 244 318 c134 176 253 330 264 344 55 71 151
197 491 641 86 113 183 229 213 257 61 55 173 116 202 110 14 -2 27 -31 53
-115 l35 -111 40 -7 c61 -9 82 -28 105 -92 12 -32 26 -67 31 -78 18 -39 80
-199 77 -201 -1 -1 -34 -17 -74 -37 -343 -169 -598 -497 -681 -877 -24 -110
-25 -120 -26 -280 -1 -155 6 -217 41 -345 101 -368 375 -684 728 -838 82 -36
193 -72 255 -82 19 -3 42 -7 50 -10 38 -10 144 -17 230 -16 104 2 139 6 250
26 34 6 109 28 165 47 403 139 725 495 826 912 58 244 42 529 -44 757 -118
312 -364 581 -658 718 -271 126 -577 159 -853 90 -44 -10 -80 -18 -81 -17 -1
2 -27 71 -59 153 -86 225 -93 236 -153 256 -36 11 -49 33 -87 141 -8 24 -47
126 -85 227 l-70 184 22 18 c18 14 20 21 11 36 -6 10 -22 19 -36 21 -20 2 -27
13 -41 58 -31 100 -26 107 126 202 106 66 117 71 176 73 81 3 111 24 111 80 0
26 -7 46 -21 60 -19 19 -20 23 -6 57 28 69 8 145 -48 188 -37 28 -40 28 -150
25 -11 -1 -38 1 -60 4 -25 3 -46 1 -56 -7z m-100 -1032 c-2 -3 -45 -25 -94
-50 -128 -64 -139 -75 -384 -394 -124 -162 -181 -227 -235 -270 -39 -31 -73
-59 -76 -62 -3 -3 -39 -31 -80 -62 -41 -31 -124 -96 -185 -143 -102 -80 -136
-101 -194 -120 -19 -6 -24 -1 -38 35 -13 32 -21 40 -37 38 -22 -3 -24 -16 -11
-58 l7 -25 -30 28 c-49 47 -82 24 -56 -38 6 -15 -2 -12 -30 13 -21 18 -43 31
-49 29 -13 -4 -14 -42 -2 -72 6 -15 -1 -11 -26 13 -19 17 -40 32 -46 32 -17 0
-23 -28 -13 -56 14 -37 13 -37 -21 -4 -50 47 -81 34 -59 -25 10 -26 9 -27 -7
-14 -10 8 -22 20 -26 27 -4 6 -19 12 -32 12 -18 0 -47 27 -117 108 -51 59
-103 118 -116 132 -17 19 -53 107 -48 116 1 1 170 70 376 154 206 83 389 158
405 165 17 7 210 86 430 175 220 89 432 175 470 191 261 109 338 139 324 125z
m-2024 -481 c73 -8 117 -13 170 -20 95 -13 120 -17 122 -19 1 -1 -68 -30 -153
-65 -93 -37 -160 -59 -165 -54 -9 9 -49 143 -49 163 0 6 3 9 8 7 4 -3 34 -8
67 -12z m1151 -477 c-14 -18 -49 -66 -78 -105 -29 -40 -57 -73 -63 -73 -5 0
-21 9 -34 19 l-23 18 108 86 c60 48 111 87 113 87 2 0 -8 -15 -23 -32z m-2350
-8 c200 -40 366 -131 520 -284 102 -102 205 -249 188 -266 -5 -5 -94 -48 -199
-95 -104 -48 -219 -100 -255 -117 -256 -118 -266 -122 -298 -90 -59 59 -183
81 -259 46 -82 -38 -149 -146 -137 -221 2 -16 6 -42 9 -59 3 -17 16 -45 29
-63 l24 -32 -18 -48 c-24 -63 -31 -123 -17 -152 13 -25 72 -45 161 -54 27 -3
58 -12 68 -22 22 -20 24 -66 2 -83 -21 -19 -36 -48 -41 -85 -5 -36 29 -92 67
-113 38 -19 108 -7 136 24 13 14 34 27 47 29 12 3 33 7 47 9 14 3 41 8 60 10
19 3 44 7 55 9 24 5 78 14 120 21 173 28 340 58 347 62 32 20 -36 -77 -109
-156 -346 -374 -917 -437 -1347 -149 -296 197 -469 544 -453 904 29 647 615
1104 1253 975z m4332 4 c317 -65 583 -267 726 -551 199 -397 129 -873 -177
-1192 -353 -369 -916 -429 -1339 -143 -223 150 -372 374 -438 657 -28 122 -22
346 14 475 84 300 300 557 568 677 32 14 29 18 93 -147 21 -52 80 -205 132
-339 l94 -244 -30 -31 c-41 -43 -61 -95 -61 -163 0 -91 46 -165 125 -203 158
-77 340 38 334 210 -5 122 -83 210 -202 226 -23 4 -43 7 -44 8 0 0 -45 114
-98 251 -54 138 -117 300 -141 362 -24 62 -44 117 -44 122 0 11 86 31 175 41
87 9 225 2 313 -16z m-2218 -210 c46 -31 48 -40 18 -74 -13 -14 -69 -86 -125
-160 -57 -74 -114 -148 -128 -165 l-25 -30 -26 30 c-15 17 -41 46 -58 65 -93
104 -126 149 -116 155 8 5 9 20 5 42 l-6 35 32 -30 c18 -17 38 -28 46 -25 16
6 17 37 1 66 -9 17 -3 14 26 -11 21 -18 43 -31 49 -29 7 2 11 20 11 41 -1 43
2 44 28 11 11 -14 29 -25 40 -25 19 0 20 4 14 42 l-7 43 29 -28 c43 -41 84
-30 60 16 -11 22 -7 28 35 44 46 17 53 16 97 -13z m-596 -202 c21 -26 55 -65
75 -87 78 -85 191 -222 191 -231 -1 -5 -9 -19 -19 -31 l-18 -22 -54 21 c-30
11 -87 23 -128 27 l-75 6 -53 165 c-29 91 -53 168 -53 171 0 5 64 26 85 27 6
0 27 -20 49 -46z m-202 -198 c26 -82 48 -153 47 -159 0 -5 -23 -25 -50 -42
-48 -31 -57 -33 -145 -34 -53 -1 -97 1 -99 3 -2 2 -7 26 -10 53 -6 43 -41 171
-60 218 -4 9 -3 17 3 17 6 0 21 4 34 10 139 58 215 87 222 86 5 -1 31 -69 58
-152z m-533 -108 c11 -35 23 -80 26 -100 l7 -36 -108 -1 c-181 -1 -428 -9
-441 -14 -7 -2 -13 -1 -13 4 0 5 96 47 213 95 116 48 226 93 242 101 48 22 53
19 74 -49z m42 -222 c1 -30 2 -61 2 -69 0 -46 1 -45 -90 -40 -143 8 -587 27
-667 29 -34 1 -41 5 -47 28 -7 28 4 36 116 83 21 9 124 15 335 20 167 3 306 8
308 10 2 1 12 1 23 -2 16 -4 19 -15 20 -59z m390 24 c-16 -24 -36 -65 -44 -93
-14 -49 -15 -50 -52 -50 l-39 0 -2 93 -2 92 83 0 84 0 -28 -42z m-601 -243
c47 -1 111 -3 144 -4 l59 -1 -7 -50 c-10 -71 -42 -173 -83 -257 -40 -83 -17
-73 -293 -118 -19 -3 -42 -8 -50 -10 -8 -2 -35 -7 -60 -10 -25 -3 -58 -8 -75
-12 -16 -3 -39 -7 -50 -9 -11 -1 -35 -5 -52 -8 -18 -3 -48 -8 -65 -11 -18 -3
-41 -8 -50 -11 -15 -4 -18 1 -18 26 0 35 -15 67 -41 90 -16 15 -16 19 12 84
46 108 46 189 -1 249 -18 22 -19 29 -8 47 13 21 15 21 283 15 149 -4 308 -8
355 -10z m521 -24 c11 -1 24 -23 38 -68 22 -66 62 -129 109 -169 l24 -21 -47
-7 c-26 -4 -57 -9 -68 -12 -12 -2 -38 -7 -57 -10 -19 -2 -57 -9 -84 -15 -27
-5 -51 -8 -52 -6 -2 2 5 30 16 63 27 78 52 191 53 240 0 6 12 10 26 8 14 -1
33 -2 42 -3z"/>
</g>
</svg>
